<?xml version="1.0" encoding="utf-8"?>
<!-- Generator: Adobe Illustrator 23.0.3, SVG Export Plug-In . SVG Version: 6.00 Build 0)  -->
<svg version="1.1" id="Layer_1" xmlns="http://www.w3.org/2000/svg" xmlns:xlink="http://www.w3.org/1999/xlink" x="0px" y="0px"
	 viewBox="0 0 425.2 425.2" style="enable-background:new 0 0 425.2 425.2;" xml:space="preserve">
<style type="text/css">
	.st0{fill:#FFFFFF;}
	.st1{fill:none;}
</style>
<g>
	<g>
		<path class="st0" d="M323.01,109.46l-13.72,13.72c13.55,16.89,21.15,45.44,21.15,89.27c0,80.13-25.34,109.27-66.2,109.27
			c-2.22,0-4.12,0-6.02,0c-18.05,0-19.95-11.41-19.95-34.84v-92.68l-49.1,49.1v43.58c0,23.44-1.9,34.84-19.95,34.84v1.58h108.96
			c68.42,0,109.27-46.88,109.27-110.86C387.44,163.8,364.03,125.32,323.01,109.46z"/>
	</g>
	<g>
		<path class="st1" d="M120,103.18h-4.12c-18.37,0-25.97,31.99-25.97,61.44c0,29.14,2.22,61.13,25.97,61.13c6.02,0,15.2,0,24.07,0
			v-87.74C139.64,114.58,138.05,103.18,120,103.18z"/>
		<path class="st0" d="M189.05,138.02c0-23.44,1.9-34.84,19.95-34.84v-1.59H108.28c-30.72,0-70.63,17.74-70.63,63.03
			s39.28,62.71,73.8,62.71h28.51v59.55c-0.02,1.82-0.06,3.54-0.11,5.22l49.21-49.21V138.02z M115.88,225.75
			c-23.75,0-25.97-31.99-25.97-61.13c0-29.46,7.6-61.44,25.97-61.44H120c18.05,0,19.64,11.4,19.95,34.84v87.74
			C131.09,225.75,121.9,225.75,115.88,225.75z"/>
	</g>
</g>
</svg>
